<svg xmlns="http://www.w3.org/2000/svg" version="1.1" xmlns:xlink="http://www.w3.org/1999/xlink" xmlns:svgjs="http://svgjs.com/svgjs" viewBox="0 0 140 140" width="140" height="140"><g transform="matrix(5.833333333333333,0,0,5.833333333333333,0,0)"><path d="M12.028,1C5.676,1,.528,5.253.528,10.5a8.74,8.74,0,0,0,3.4,6.741L1.528,23,7.9,19.359A13.608,13.608,0,0,0,12.028,20c6.351,0,11.5-4.253,11.5-9.5S18.379,1,12.028,1Z" fill="none" stroke="#000000" stroke-linecap="round" stroke-linejoin="round"></path><path d="M12.028 12.001L12.028 5.001" fill="none" stroke="#000000" stroke-linecap="round" stroke-linejoin="round"></path><path d="M12.028,14.25a.25.25,0,1,1-.25.25.25.25,0,0,1,.25-.25" fill="none" stroke="#000000" stroke-linecap="round" stroke-linejoin="round"></path></g></svg>