<svg xmlns="http://www.w3.org/2000/svg" version="1.1" xmlns:xlink="http://www.w3.org/1999/xlink" xmlns:svgjs="http://svgjs.com/svgjs" viewBox="0 0 140 140" width="140" height="140"><g transform="matrix(5.833333333333333,0,0,5.833333333333333,0,0)"><path d="M22.5,23.5a5.367,5.367,0,0,0-9,0" fill="none" stroke="#000000" stroke-linecap="round" stroke-linejoin="round"></path><path d="M10.5,23.5a5.367,5.367,0,0,0-9,0" fill="none" stroke="#000000" stroke-linecap="round" stroke-linejoin="round"></path><path d="M16.5,11a5.367,5.367,0,0,0-9,0" fill="none" stroke="#000000" stroke-linecap="round" stroke-linejoin="round"></path><path d="M9.249,2.1a5.4,5.4,0,0,0,3.884,1.65,5.4,5.4,0,0,0,2.138-.44" fill="none" stroke="#000000" stroke-linecap="round" stroke-linejoin="round"></path><path d="M8.800 3.750 A3.250 3.250 0 1 0 15.300 3.750 A3.250 3.250 0 1 0 8.800 3.750 Z" fill="none" stroke="#000000" stroke-linecap="round" stroke-linejoin="round"></path><path d="M3.249,14.6a5.4,5.4,0,0,0,6.022,1.21" fill="none" stroke="#000000" stroke-linecap="round" stroke-linejoin="round"></path><path d="M2.800 16.250 A3.250 3.250 0 1 0 9.300 16.250 A3.250 3.250 0 1 0 2.800 16.250 Z" fill="none" stroke="#000000" stroke-linecap="round" stroke-linejoin="round"></path><path d="M15.249,14.6a5.4,5.4,0,0,0,6.022,1.21" fill="none" stroke="#000000" stroke-linecap="round" stroke-linejoin="round"></path><path d="M14.800 16.250 A3.250 3.250 0 1 0 21.300 16.250 A3.250 3.250 0 1 0 14.800 16.250 Z" fill="none" stroke="#000000" stroke-linecap="round" stroke-linejoin="round"></path></g></svg>