<svg xmlns="http://www.w3.org/2000/svg" version="1.1" xmlns:xlink="http://www.w3.org/1999/xlink" xmlns:svgjs="http://svgjs.com/svgjs" viewBox="0 0 140 140" width="140" height="140"><g transform="matrix(5.833333333333333,0,0,5.833333333333333,0,0)"><path d="M0.504 10.500 A5 1 0 1 0 10.504 10.500 A5 1 0 1 0 0.504 10.500 Z" fill="none" stroke="#000000" stroke-linecap="round" stroke-linejoin="round"></path><path d="M10.5,10.5v3c0,.553-2.238,1-5,1s-5-.447-5-1v-3" fill="none" stroke="#000000" stroke-linecap="round" stroke-linejoin="round"></path><path d="M10.5,13.5v3c0,.553-2.238,1-5,1s-5-.447-5-1v-3" fill="none" stroke="#000000" stroke-linecap="round" stroke-linejoin="round"></path><path d="M10.5,16.5v3c0,.553-2.238,1-5,1s-5-.447-5-1v-3" fill="none" stroke="#000000" stroke-linecap="round" stroke-linejoin="round"></path><path d="M10.5,19.5v3c0,.553-2.238,1-5,1s-5-.447-5-1v-3" fill="none" stroke="#000000" stroke-linecap="round" stroke-linejoin="round"></path><path d="M.5,7.5v-6a1,1,0,0,1,1-1h21a1,1,0,0,1,1,1v12a1,1,0,0,1-1,1H13" fill="none" stroke="#000000" stroke-linecap="round" stroke-linejoin="round"></path><path d="M9,7.5a3,3,0,1,1,4,2.829" fill="none" stroke="#000000" stroke-linecap="round" stroke-linejoin="round"></path><path d="M5,4.75a.25.25,0,1,1-.25.25A.25.25,0,0,1,5,4.75" fill="none" stroke="#000000" stroke-linecap="round" stroke-linejoin="round"></path><path d="M19,9.75a.25.25,0,1,1-.25.25A.25.25,0,0,1,19,9.75" fill="none" stroke="#000000" stroke-linecap="round" stroke-linejoin="round"></path><path d="M2.5,7.5V3A.5.5,0,0,1,3,2.5H21a.5.5,0,0,1,.5.5v9a.5.5,0,0,1-.5.5H13" fill="none" stroke="#000000" stroke-linecap="round" stroke-linejoin="round"></path></g></svg>