<svg xmlns="http://www.w3.org/2000/svg" version="1.1" xmlns:xlink="http://www.w3.org/1999/xlink" xmlns:svgjs="http://svgjs.com/svgjs" viewBox="0 0 140 140" width="140" height="140"><g transform="matrix(5.833333333333333,0,0,5.833333333333333,0,0)"><path d="M8,23.5H1V9.5a1,1,0,0,1,1-1H7a1,1,0,0,1,1,1Z" fill="none" stroke="#000000" stroke-linecap="round" stroke-linejoin="round"></path><path d="M7,8.5V4.825a.5.5,0,0,1,.3-.457l8-3.556a.5.5,0,0,1,.7.457V9.505" fill="none" stroke="#000000" stroke-linecap="round" stroke-linejoin="round"></path><path d="M6,23.5V21a.5.5,0,0,0-.5-.5h-2A.5.5,0,0,0,3,21v2.5" fill="none" stroke="#000000" stroke-linecap="round" stroke-linejoin="round"></path><path d="M1 11.5L5 11.5" fill="none" stroke="#000000" stroke-linecap="round" stroke-linejoin="round"></path><path d="M13 5.5L16 5.5" fill="none" stroke="#000000" stroke-linecap="round" stroke-linejoin="round"></path><path d="M11 7.5L16 7.5" fill="none" stroke="#000000" stroke-linecap="round" stroke-linejoin="round"></path><path d="M1 13.5L3 13.5" fill="none" stroke="#000000" stroke-linecap="round" stroke-linejoin="round"></path><path d="M18.5,14.5H16.467a1.342,1.342,0,0,0-.5,2.587l2.064.826a1.342,1.342,0,0,1-.5,2.587H15.5" fill="none" stroke="#000000" stroke-linecap="round" stroke-linejoin="round"></path><path d="M17 21.5L17 20.5" fill="none" stroke="#000000" stroke-linecap="round" stroke-linejoin="round"></path><path d="M17 14.5L17 13.5" fill="none" stroke="#000000" stroke-linecap="round" stroke-linejoin="round"></path><path d="M11.000 17.500 A6.000 6.000 0 1 0 23.000 17.500 A6.000 6.000 0 1 0 11.000 17.500 Z" fill="none" stroke="#000000" stroke-linecap="round" stroke-linejoin="round"></path><path d="M9 3.611L9 0.5" fill="none" stroke="#000000" stroke-linecap="round" stroke-linejoin="round"></path><path d="M8 23.5L11 23.5" fill="none" stroke="#000000" stroke-linecap="round" stroke-linejoin="round"></path></g></svg>